{
  "accessors": [
    {
      "bufferView": 2,
      "componentType": 5126,
      "count": 578,
      "max": [
        1.105424404144287,
        1.1054245233535767,
        1.0726805925369263
      ],
      "min": [
        -1.105424165725708,
        -1.1054242849349976,
        -0.9215730428695679
      ],
      "type": "VEC3"
    },
    {
      "bufferView": 2,
      "byteOffset": 6936,
      "componentType": 5126,
      "count": 578,
      "max": [
        0.9969785213470459,
        0.9969784617424011,
        1.0
      ],
      "min": [
        -0.9969784617424011,
        -0.9969785213470459,
        -0.996730625629425
      ],
      "type": "VEC3"
    },
    {
      "bufferView": 1,
      "componentType": 5126,
      "count": 578,
      "max": [
        0.5451400279998779,
        0.9977943897247314
      ],
      "min": [
        0.0022056412417441607,
        0.0022056412417441607
      ],
      "type": "VEC2"
    },
    {
      "bufferView": 0,
      "componentType": 5125,
      "count": 3258,
      "type": "SCALAR"
    },
    {
      "bufferView": 2,
      "byteOffset": 13872,
      "componentType": 5126,
      "count": 352,
      "max": [
        1.105424404144287,
        1.1054245233535767,
        0.28049054741859436
      ],
      "min": [
        -1.105424165725708,
        -1.1054242849349976,
        -0.9215730428695679
      ],
      "type": "VEC3"
    },
    {
      "bufferView": 2,
      "byteOffset": 18096,
      "componentType": 5126,
      "count": 352,
      "max": [
        0.9969785213470459,
        0.9969784617424011,
        0.29690465331077576
      ],
      "min": [
        -0.9969784617424011,
        -0.9969785213470459,
        -0.996730625629425
      ],
      "type": "VEC3"
    },
    {
      "bufferView": 1,
      "byteOffset": 4624,
      "componentType": 5126,
      "count": 352,
      "max": [
        0.9987956285476685,
        0.9999001622200012
      ],
      "min": [
        9.992479317588732e-05,
        9.99247858999297e-05
      ],
      "type": "VEC2"
    },
    {
      "bufferView": 0,
      "byteOffset": 13032,
      "componentType": 5125,
      "count": 2010,
      "type": "SCALAR"
    },
    {
      "bufferView": 2,
      "byteOffset": 22320,
      "componentType": 5126,
      "count": 5106,
      "max": [
        0.9661773443222046,
        0.16718244552612305,
        0.37395432591438293
      ],
      "min": [
        -0.7070601582527161,
        -0.16717125475406647,
        -0.3651856780052185
      ],
      "type": "VEC3"
    },
    {
      "bufferView": 2,
      "byteOffset": 83592,
      "componentType": 5126,
      "count": 5106,
      "max": [
        0.9988085031509399,
        1.0,
        1.0
      ],
      "min": [
        -0.9999260902404785,
        -1.0,
        -0.9999992847442627
      ],
      "type": "VEC3"
    },
    {
      "bufferView": 1,
      "byteOffset": 7440,
      "componentType": 5126,
      "count": 5106,
      "max": [
        0.9987956285476685,
        0.9999001622200012
      ],
      "min": [
        0.0,
        0.0
      ],
      "type": "VEC2"
    },
    {
      "bufferView": 0,
      "byteOffset": 21072,
      "componentType": 5125,
      "count": 30330,
      "type": "SCALAR"
    },
    {
      "bufferView": 2,
      "byteOffset": 144864,
      "componentType": 5126,
      "count": 32,
      "max": [
        0.9661773443222046,
        0.058658260852098465,
        0.06822621822357178
      ],
      "min": [
        0.9298359751701355,
        -0.05864706262946129,
        -0.06507682055234909
      ],
      "type": "VEC3"
    },
    {
      "bufferView": 2,
      "byteOffset": 145248,
      "componentType": 5126,
      "count": 32,
      "max": [
        0.941666305065155,
        0.542282223701477,
        0.3365481495857239
      ],
      "min": [
        0.6410314440727234,
        -0.5422829389572144,
        -0.767514705657959
      ],
      "type": "VEC3"
    },
    {
      "bufferView": 1,
      "byteOffset": 48288,
      "componentType": 5126,
      "count": 32,
      "max": [
        0.0,
        0.0
      ],
      "min": [
        0.0,
        0.0
      ],
      "type": "VEC2"
    },
    {
      "bufferView": 0,
      "byteOffset": 142392,
      "componentType": 5125,
      "count": 90,
      "type": "SCALAR"
    }
  ],
  "asset": {
    "extras": {
      "author": "thegamergoblin420 (https://sketchfab.com/Fem_thulhu)",
      "license": "CC-BY-4.0 (http://creativecommons.org/licenses/by/4.0/)",
      "source": "https://sketchfab.com/3d-models/hito-hito-no-mi-0357916aa3c34041b5a03dcd623a3c35",
      "title": "Hito Hito no Mi"
    },
    "generator": "Sketchfab-14.22.0",
    "version": "2.0"
  },
  "bufferViews": [
    {
      "buffer": 0,
      "byteLength": 142752,
      "name": "floatBufferViews",
      "target": 34963
    },
    {
      "buffer": 0,
      "byteLength": 48544,
      "byteOffset": 142752,
      "byteStride": 8,
      "name": "floatBufferViews",
      "target": 34962
    },
    {
      "buffer": 0,
      "byteLength": 145632,
      "byteOffset": 191296,
      "byteStride": 12,
      "name": "floatBufferViews",
      "target": 34962
    }
  ],
  "buffers": [
    {
      "byteLength": 336928,
      "uri": "scene.bin"
    }
  ],
  "images": [
    {
      "uri": "textures/Sphere_BAKED_baseColor.png"
    },
    {
      "uri": "textures/Sphere_BAKED_metallicRoughness.png"
    },
    {
      "uri": "textures/Sphere.001_BAKED.001_baseColor.png"
    },
    {
      "uri": "textures/Sphere.001_BAKED.001_metallicRoughness.png"
    }
  ],
  "materials": [
    {
      "doubleSided": true,
      "name": "Sphere_BAKED",
      "pbrMetallicRoughness": {
        "baseColorTexture": {
          "index": 0
        },
        "metallicFactor": 0.0,
        "metallicRoughnessTexture": {
          "index": 1
        }
      }
    },
    {
      "doubleSided": true,
      "name": "Sphere.001_BAKED.001",
      "pbrMetallicRoughness": {
        "baseColorTexture": {
          "index": 2
        },
        "metallicFactor": 0.0,
        "metallicRoughnessTexture": {
          "index": 3
        }
      }
    },
    {
      "doubleSided": true,
      "name": "Material.003",
      "pbrMetallicRoughness": {
        "baseColorFactor": [
          0.229596,
          0.8,
          0.156728,
          1.0
        ],
        "metallicFactor": 0.0,
        "roughnessFactor": 0.8586161338648168
      }
    },
    {
      "doubleSided": true,
      "name": "Material.004",
      "pbrMetallicRoughness": {
        "baseColorFactor": [
          0.661627,
          0.8,
          0.615214,
          1.0
        ],
        "metallicFactor": 0.0,
        "roughnessFactor": 0.771347922151785
      }
    }
  ],
  "meshes": [
    {
      "name": "Sphere_Sphere_BAKED_0",
      "primitives": [
        {
          "attributes": {
            "NORMAL": 1,
            "POSITION": 0,
            "TEXCOORD_0": 2
          },
          "indices": 3,
          "material": 0,
          "mode": 4
        }
      ]
    },
    {
      "name": "Sphere.001_Sphere.001_BAKED.001_0",
      "primitives": [
        {
          "attributes": {
            "NORMAL": 5,
            "POSITION": 4,
            "TEXCOORD_0": 6
          },
          "indices": 7,
          "material": 1,
          "mode": 4
        }
      ]
    },
    {
      "name": "Vert.001_Material.003_0",
      "primitives": [
        {
          "attributes": {
            "NORMAL": 9,
            "POSITION": 8,
            "TEXCOORD_0": 10
          },
          "indices": 11,
          "material": 2,
          "mode": 4
        }
      ]
    },
    {
      "name": "Vert.001_Material.004_0",
      "primitives": [
        {
          "attributes": {
            "NORMAL": 13,
            "POSITION": 12,
            "TEXCOORD_0": 14
          },
          "indices": 15,
          "material": 3,
          "mode": 4
        }
      ]
    }
  ],
  "nodes": [
    {
      "children": [
        1
      ],
      "matrix": [
        1.0,
        0.0,
        0.0,
        0.0,
        0.0,
        2.220446049250313e-16,
        -1.0,
        0.0,
        0.0,
        1.0,
        2.220446049250313e-16,
        0.0,
        0.0,
        0.0,
        0.0,
        1.0
      ],
      "name": "Sketchfab_model"
    },
    {
      "children": [
        2
      ],
      "matrix": [
        0.009999999776482582,
        0.0,
        0.0,
        0.0,
        0.0,
        0.0,
        0.009999999776482582,
        0.0,
        0.0,
        -0.009999999776482582,
        0.0,
        0.0,
        0.0,
        0.0,
        0.0,
        1.0
      ],
      "name": "f69e8f3249944881b7ac41d15b197619.fbx"
    },
    {
      "children": [
        3,
        5,
        7
      ],
      "name": "RootNode"
    },
    {
      "children": [
        4
      ],
      "matrix": [
        76.45217895507813,
        0.0,
        0.0,
        0.0,
        0.0,
        -1.2455640936347204e-05,
        -76.45217895507712,
        0.0,
        0.0,
        76.45217895507712,
        -1.2455640936347204e-05,
        0.0,
        1.0944410860247444e-05,
        -5.730993270874023,
        1.607458671060158e-06,
        1.0
      ],
      "name": "Sphere"
    },
    {
      "mesh": 0,
      "name": "Sphere_Sphere_BAKED_0"
    },
    {
      "children": [
        6
      ],
      "matrix": [
        47.05641555786133,
        0.0,
        0.0,
        0.0,
        0.0,
        -7.666463192431114e-06,
        -47.05641555786071,
        0.0,
        0.0,
        59.086002349852734,
        -9.626331645385483e-06,
        0.0,
        6.7362989284447394e-06,
        -83.36561584472656,
        9.893929018289782e-07,
        1.0
      ],
      "name": "Sphere.001"
    },
    {
      "mesh": 1,
      "name": "Sphere.001_Sphere.001_BAKED.001_0"
    },
    {
      "children": [
        8,
        9
      ],
      "matrix": [
        100.0,
        0.0,
        0.0,
        0.0,
        -0.0,
        -1.629206793918314e-05,
        -99.99999999999868,
        0.0,
        0.0,
        99.99999999999868,
        -1.629206793918314e-05,
        0.0,
        -17.721193313598633,
        107.233154296875,
        0.0005743111832998693,
        1.0
      ],
      "name": "Vert.001"
    },
    {
      "mesh": 2,
      "name": "Vert.001_Material.003_0"
    },
    {
      "mesh": 3,
      "name": "Vert.001_Material.004_0"
    }
  ],
  "samplers": [
    {
      "magFilter": 9729,
      "minFilter": 9987,
      "wrapS": 10497,
      "wrapT": 10497
    }
  ],
  "scene": 0,
  "scenes": [
    {
      "name": "Sketchfab_Scene",
      "nodes": [
        0
      ]
    }
  ],
  "textures": [
    {
      "sampler": 0,
      "source": 0
    },
    {
      "sampler": 0,
      "source": 1
    },
    {
      "sampler": 0,
      "source": 2
    },
    {
      "sampler": 0,
      "source": 3
    }
  ]
}
